<svg xmlns="http://www.w3.org/2000/svg" viewBox="0 0 94 32">
  <g fill="none" fill-rule="evenodd">
    <path fill="#14BA8B" d="M42.834 12.885c-1.578 1.558-3.494 2.176-5.61 2.176-5.49 0-7.627-3.453-7.647-7.246-.02-3.594 2.396-7.407 7.646-7.407 2.017 0 3.834.7 5.41 2.236L40.2 5.04c-.998-.96-2.036-1.22-2.975-1.22-2.695 0-3.753 2.197-3.733 4.014.02 1.817.978 3.873 3.733 3.873.94 0 2.296-.4 3.295-1.417l2.316 2.595zM44.45 14.702h3.934V.726H44.45M57.748 4.64L55.95 9.092h3.574L57.748 4.64zm3.114 7.766h-6.25l-.917 2.296h-4.193L55.772.727h3.992l6.25 13.975H61.78l-.918-2.296zM71.324 5.518L74.34.728h4.45v.178l-5.55 8.226v5.57H69.29v-5.57L63.978.886v-.16h4.45M86.02 3.76c-2.258 0-3.815 1.638-3.815 3.954 0 2.336 1.577 3.953 3.814 3.953 2.314 0 3.812-1.637 3.812-3.953 0-2.395-1.498-3.953-3.813-3.953m0 11.28c-4.573 0-7.768-2.654-7.768-7.326 0-4.592 3.195-7.327 7.767-7.327 4.59 0 7.765 2.675 7.765 7.327 0 4.672-3.175 7.327-7.766 7.327"/>
    <path fill="#222" d="M33.178 29.05h4.024c1.188 0 2.836-.382 2.836-1.857 0-1.437-1.59-2.09-2.817-2.09H33.18v3.948zm0-5.862h4.043c1.61 0 2.415-.632 2.415-1.686 0-.94-.824-1.936-2.433-1.936h-4.024v3.622zm4.024-5.557c2.548 0 4.56 1.17 4.56 3.833 0 1.13-.594 2.146-1.86 2.664 1.61.48 2.282 2.07 2.282 3.085 0 2.93-2.338 3.832-4.982 3.832h-6.15V17.63h6.15zM46.916 17.63v11.42h7.07v1.994H44.77V17.63M61.727 29.358c3.334 0 4.733-2.357 4.733-4.925 0-2.47-1.418-5.04-4.694-5.097-3.104 0-4.772 2.166-4.772 5.097.04 2.376 1.418 4.925 4.733 4.925m6.86-4.963c0 3.622-2.203 6.936-6.86 6.936-4.656 0-6.86-3.39-6.86-6.916 0-4.08 2.856-7.032 6.9-7.032 4.578.02 6.82 3.392 6.82 7.013M80.984 20.716c-.958-.94-2.376-1.437-3.62-1.437-3.144 0-4.964 2.356-4.945 5.192 0 2.452 1.455 4.828 4.943 4.828 1.15 0 2.203-.287 3.276-1.188v-2.72h-3.737v-1.917h5.73v5.5c-1.342 1.475-3.01 2.337-5.27 2.337-4.925 0-7.052-3.276-7.052-6.84 0-3.87 2.473-7.167 7.053-7.167 1.782 0 3.583.67 4.962 2.03l-1.34 1.38z"/>
    <path fill="#231F1F" d="M12.057.654L.533 5.428v17.753l4.087 1.694v6.16l16.977-7.03 1.984-.823V5.43"/>
    <path fill="#222" d="M12.057.654v17.753L.532 23.18l4.088 1.694v6.16l18.96-7.853V5.43"/>
    <path fill="#14BA8B" d="M12.056.654v17.754L.533 23.18V5.43"/>
  </g>
</svg>
